<svg width="29" height="34" viewBox="0 0 29 34" fill="none" xmlns="http://www.w3.org/2000/svg">
<g clip-path="url(#clip0_394_5)">
<path d="M5.69632 18.0085L4.95054 17.929L5.69632 18.0085ZM6.27393 12.5909L7.01971 12.6704L6.27393 12.5909ZM4.57839 20.6992L3.99264 20.2308H3.99264L4.57839 20.6992ZM23.7161 17.929C23.6722 17.5171 23.3027 17.2188 22.8908 17.2627C22.479 17.3066 22.1807 17.6761 22.2246 18.088L23.7161 17.929ZM24.0883 20.6992L23.5025 21.1676L24.0883 20.6992ZM11.4013 6.26378L11.6582 6.96844C11.9543 6.86051 12.1513 6.57896 12.1513 6.26378H11.4013ZM15.975 4.55989C16.2351 4.8823 16.7073 4.93287 17.0297 4.67283C17.3521 4.41279 17.4027 3.94062 17.1426 3.6182L15.975 4.55989ZM18.9158 27.9991C19.0533 27.6084 18.8481 27.1801 18.4574 27.0426C18.0667 26.905 17.6385 27.1102 17.5009 27.5009L18.9158 27.9991ZM11.1658 27.5009C11.0282 27.1102 10.6 26.905 10.2093 27.0426C9.81857 27.1801 9.61334 27.6084 9.7509 27.9991L11.1658 27.5009ZM21.7955 25V24.25H6.87113V25V25.75H21.7955V25ZM5.69632 18.0085L6.44209 18.088L7.01971 12.6704L6.27393 12.5909L5.52816 12.5114L4.95054 17.929L5.69632 18.0085ZM4.57839 20.6992L5.16414 21.1676C5.87855 20.2742 6.32252 19.2095 6.44209 18.088L5.69632 18.0085L4.95054 17.929C4.86205 18.759 4.53284 19.5552 3.99264 20.2308L4.57839 20.6992ZM22.9704 18.0085L22.2246 18.088C22.3442 19.2095 22.7881 20.2742 23.5025 21.1676L24.0883 20.6992L24.674 20.2308C24.1338 19.5552 23.8046 18.759 23.7161 17.929L22.9704 18.0085ZM6.87113 25V24.25C5.04126 24.25 4.19924 22.3742 5.16414 21.1676L4.57839 20.6992L3.99264 20.2308C2.12355 22.5682 3.97769 25.75 6.87113 25.75V25ZM21.7955 25V25.75C24.689 25.75 26.5431 22.5682 24.674 20.2308L24.0883 20.6992L23.5025 21.1676C24.4674 22.3742 23.6254 24.25 21.7955 24.25V25ZM11.4013 6.26378H12.1513V6.12118H11.4013H10.6513V6.26378H11.4013ZM6.27393 12.5909L7.01971 12.6704C7.29781 10.062 9.13205 7.88914 11.6582 6.96844L11.4013 6.26378L11.1445 5.55913C8.13606 6.65563 5.87298 9.27727 5.52816 12.5114L6.27393 12.5909ZM14.3333 3V2.25C12.2563 2.25 10.6513 4.02805 10.6513 6.12118H11.4013H12.1513C12.1513 4.76675 13.1717 3.75 14.3333 3.75V3ZM14.3333 3V3.75C14.9776 3.75 15.5673 4.05427 15.975 4.55989L16.5588 4.08904L17.1426 3.6182C16.475 2.79039 15.4695 2.25 14.3333 2.25V3ZM18.2083 27.75L17.5009 27.5009C17.0387 28.8138 15.7927 29.75 14.3333 29.75V30.5V31.25C16.4519 31.25 18.2499 29.8905 18.9158 27.9991L18.2083 27.75ZM14.3333 30.5V29.75C12.8739 29.75 11.628 28.8138 11.1658 27.5009L10.4583 27.75L9.7509 27.9991C10.4168 29.8905 12.2148 31.25 14.3333 31.25V30.5Z" fill="#1B1E28"/>
<path d="M28.75 7.125C28.75 9.40317 27.0151 11.25 24.875 11.25C22.7349 11.25 21 9.40317 21 7.125C21 4.84683 22.7349 3 24.875 3C27.0151 3 28.75 4.84683 28.75 7.125Z" fill="#FF7029" stroke="white" stroke-linecap="round"/>
</g>
<defs>
<clipPath id="clip0_394_5">
<rect width="28.6667" height="33.5" fill="white"/>
</clipPath>
</defs>
</svg>
